# xmcd
#
# Track frame offsets:
#	150
#	25614
#	41372
#	58040
#	76698
#	94039
#	110529
#	125203
#	138534
#	161773
#	176064
#	193474
#	210157
#	223451
#	237310
#
# Disc length: 3371 seconds
#
# Revision: 1
# Processed by: cddbd v1.5.1PL0 Copyright (c) Steve Scherf et al.
# Submitted via: audiograbber 1.83.01
#
DISCID=d90d290f
DTITLE=David Allan Coe - CB90115
DYEAR=1900
DGENRE=Karaoke Country
TTITLE0=You Never Even Called Me By My Name
TTITLE1=Ride, The
TTITLE2=Long Haired Redneck
TTITLE3=Mona Lisa Lost Her Smile
TTITLE4=Jack Daniels If You Please
TTITLE5=Willie Waylon and Me
TTITLE6=Tennessee Whiskey
TTITLE7=Just To Prove My Love To You
TTITLE8=If That Ain't Country
TTITLE9=What Made You Change Your Mind
TTITLE10=Get A Little Dirt On Your Hands
TTITLE11=Now I Lay Me Down To Cheat
TTITLE12=Hank Williams Junior Junior
TTITLE13=This Bottle (In My Hand)
TTITLE14=Divers Do It Deeper
EXTD=Chartbusters
EXTT0=
EXTT1=
EXTT2=
EXTT3=
EXTT4=
EXTT5=
EXTT6=
EXTT7=
EXTT8=
EXTT9=
EXTT10=
EXTT11=
EXTT12=
EXTT13=
EXTT14=
PLAYORDER=
